<svg width="16" height="10" viewBox="0 0 16 10" fill="none" xmlns="http://www.w3.org/2000/svg">
<path fill-rule="evenodd" clip-rule="evenodd" d="M15.8154 4.3378C14.2491 1.73774 11.328 0 8 0C4.67056 0 1.75012 1.73897 0.184624 4.3378C-0.0615413 4.74644 -0.0615413 5.25359 0.184624 5.66223C1.75087 8.26226 4.67195 10 8 10C11.3294 10 14.2499 8.26103 15.8154 5.6622C16.0615 5.25357 16.0615 4.74643 15.8154 4.3378ZM8 8.69566C5.91217 8.69566 4.22223 7.04276 4.22223 5.00001C4.22223 2.95757 5.91184 1.30436 8 1.30436C10.0878 1.30436 11.7778 2.95724 11.7778 5.00001C11.7778 7.04246 10.0882 8.69566 8 8.69566ZM8.00003 7.8261C9.59553 7.8261 10.8889 6.56083 10.8889 5.00001C10.8889 3.4392 9.59553 2.17392 8.00003 2.17392C7.50814 2.17392 7.04506 2.29433 6.63967 2.50642L6.64056 2.5064C7.29753 2.5064 7.83011 3.0274 7.83011 3.67009C7.83011 4.31275 7.29753 4.83376 6.64056 4.83376C5.98359 4.83376 5.45101 4.31278 5.45101 3.67009L5.45103 3.66922C5.23423 4.0658 5.11115 4.51881 5.11115 5.00001C5.11115 6.56083 6.40453 7.8261 8.00003 7.8261Z" fill="currentColor"/>
</svg>
