<svg width="150" height="24" viewBox="0 0 150 24" fill="none" xmlns="http://www.w3.org/2000/svg">
<path fill-rule="evenodd" clip-rule="evenodd" d="M42.7673 23.6255V18.4135L44.6742 16.3537L49.0919 23.6255H54.4949L48.2338 13.4512L54.5267 6.58517H48.647L42.7673 12.7334V0H38V23.6255H42.7673ZM61.9954 24C64.1566 24 65.894 23.3446 67.2077 22.0338V23.6255H71.6572V12.3901C71.6572 11.1626 71.3446 10.0858 70.7196 9.15996C70.0946 8.23408 69.2205 7.51106 68.0976 6.99091C66.9746 6.47075 65.6821 6.21067 64.2202 6.21067C62.3768 6.21067 60.7612 6.6268 59.3734 7.45905C57.9856 8.2913 57.0374 9.41483 56.5289 10.8297L60.3428 12.6086C60.6394 11.8596 61.1108 11.2562 61.7571 10.7984C62.4033 10.3407 63.1502 10.1118 63.9977 10.1118C64.8876 10.1118 65.5921 10.3303 66.1112 10.7672C66.6303 11.2042 66.8899 11.7451 66.8899 12.3901V12.8583L62.0908 13.6073C60.0143 13.9402 58.4676 14.5748 57.4506 15.5111C56.4336 16.4473 55.925 17.6333 55.925 19.0689C55.925 20.6086 56.4706 21.8153 57.5618 22.6892C58.653 23.5631 60.1309 24 61.9954 24ZM61.4552 20.13C61.8577 20.4213 62.3557 20.567 62.9489 20.567C64.1355 20.567 65.0889 20.2029 65.8093 19.4746C66.5297 18.7464 66.8899 17.8622 66.8899 16.8218V16.2913L62.9489 16.9779C62.2709 17.1027 61.7518 17.316 61.3916 17.6177C61.0314 17.9194 60.8513 18.3511 60.8513 18.9129C60.8513 19.433 61.0526 19.8388 61.4552 20.13ZM79.9206 23.6255V13.6697C79.9206 12.6918 80.2172 11.9064 80.8105 11.3134C81.4037 10.7204 82.1665 10.4239 83.0988 10.4239C84.0311 10.4239 84.7938 10.7204 85.3871 11.3134C85.9804 11.9064 86.277 12.6918 86.277 13.6697V23.6255H91.0443V12.671C91.0443 11.381 90.7688 10.2523 90.218 9.28479C89.6671 8.3173 88.899 7.56308 87.9138 7.02212C86.9285 6.48115 85.7791 6.21067 84.4654 6.21067C83.3636 6.21067 82.389 6.41353 81.5415 6.81926C80.6939 7.22498 80.0477 7.84396 79.6027 8.67621V6.58519H75.1533V23.6255H79.9206ZM108.461 22.814C107.126 23.6047 105.611 24 103.916 24C102.857 24 101.866 23.8283 100.944 23.485C100.023 23.1417 99.2546 22.6476 98.6402 22.0026V23.6255H94.1907V0H98.958V8.0208C100.187 6.81404 101.85 6.21066 103.948 6.21066C105.6 6.21066 107.094 6.60598 108.429 7.39662C109.764 8.18725 110.823 9.25357 111.607 10.5956C112.391 11.9376 112.783 13.4408 112.783 15.1053C112.783 16.749 112.396 18.2471 111.623 19.5995C110.85 20.9519 109.796 22.0234 108.461 22.814ZM103.344 19.7867C102.051 19.7867 100.997 19.355 100.182 18.4915C99.3659 17.6281 98.958 16.4993 98.958 15.1053C98.958 13.7321 99.3659 12.6086 100.182 11.7347C100.997 10.8608 102.051 10.4239 103.344 10.4239C104.658 10.4239 105.738 10.866 106.586 11.7503C107.433 12.6346 107.857 13.7529 107.857 15.1053C107.857 16.4785 107.433 17.6021 106.586 18.4759C105.738 19.3498 104.658 19.7867 103.344 19.7867ZM126.163 22.0338C124.85 23.3446 123.112 24 120.951 24C119.087 24 117.609 23.5631 116.518 22.6892C115.426 21.8153 114.881 20.6086 114.881 19.0689C114.881 17.6333 115.389 16.4473 116.406 15.5111C117.423 14.5748 118.97 13.9402 121.047 13.6073L125.846 12.8583V12.3901C125.846 11.7451 125.586 11.2042 125.067 10.7672C124.548 10.3303 123.843 10.1118 122.954 10.1118C122.106 10.1118 121.359 10.3407 120.713 10.7984C120.067 11.2562 119.595 11.8596 119.299 12.6086L115.485 10.8297C115.993 9.41483 116.941 8.2913 118.329 7.45905C119.717 6.6268 121.333 6.21067 123.176 6.21067C124.638 6.21067 125.93 6.47075 127.053 6.99091C128.176 7.51106 129.05 8.23408 129.675 9.15996C130.3 10.0858 130.613 11.1626 130.613 12.3901V23.6255H126.163V22.0338ZM121.905 20.567C121.311 20.567 120.813 20.4213 120.411 20.13C120.008 19.8388 119.807 19.433 119.807 18.9129C119.807 18.3511 119.987 17.9194 120.347 17.6177C120.707 17.316 121.227 17.1027 121.905 16.9779L125.846 16.2913V16.8218C125.846 17.8622 125.485 18.7464 124.765 19.4746C124.045 20.2029 123.091 20.567 121.905 20.567ZM138.876 13.6697V23.6255H134.109V6.58519H138.558V8.67621C139.003 7.84396 139.65 7.22498 140.497 6.81926C141.345 6.41353 142.319 6.21067 143.421 6.21067C144.735 6.21067 145.884 6.48115 146.869 7.02212C147.855 7.56308 148.623 8.3173 149.174 9.28479C149.725 10.2523 150 11.381 150 12.671V23.6255H145.233V13.6697C145.233 12.6918 144.936 11.9064 144.343 11.3134C143.75 10.7204 142.987 10.4239 142.054 10.4239C141.122 10.4239 140.359 10.7204 139.766 11.3134C139.173 11.9064 138.876 12.6918 138.876 13.6697Z" fill="#000112"/>
<rect width="6" height="24" rx="2" fill="#635FC7"/>
<rect opacity="0.75" x="9" width="6" height="24" rx="2" fill="#635FC7"/>
<rect opacity="0.5" x="18" width="6" height="24" rx="2" fill="#635FC7"/>
</svg>
