<svg width="15" height="15" viewBox="0 0 15 15" fill="none" xmlns="http://www.w3.org/2000/svg">
<path d="M7.5 12.9551C7.68083 12.9551 7.85462 13.0265 7.98242 13.1543C8.11025 13.2822 8.18164 13.4559 8.18164 13.6367V14.3184C8.18164 14.4991 8.11026 14.6729 7.98242 14.8008C7.85462 14.9287 7.68083 15 7.5 15C7.31917 15 7.14544 14.9287 7.01758 14.8008C6.88974 14.6729 6.81836 14.4992 6.81836 14.3184V13.6367C6.81836 13.4559 6.88976 13.2822 7.01758 13.1543C7.14544 13.0265 7.31917 12.9551 7.5 12.9551ZM3.06836 11.25C3.24904 11.25 3.422 11.3225 3.5498 11.4502C3.67752 11.578 3.74989 11.751 3.75 11.9316C3.75 12.1124 3.67762 12.2863 3.5498 12.4141L2.52734 13.4365C2.39875 13.5607 2.22662 13.6295 2.04785 13.6279C1.8691 13.6264 1.69769 13.5551 1.57129 13.4287C1.44495 13.3023 1.37362 13.1309 1.37207 12.9521C1.37057 12.7734 1.43933 12.6012 1.56348 12.4727L2.58594 11.4502C2.7138 11.3224 2.88757 11.25 3.06836 11.25ZM11.9316 11.25C12.1125 11.25 12.2862 11.3224 12.4141 11.4502L13.4365 12.4727C13.5607 12.6012 13.6294 12.7734 13.6279 12.9521C13.6264 13.1309 13.5551 13.3023 13.4287 13.4287C13.3023 13.5551 13.1309 13.6264 12.9521 13.6279C12.7734 13.6295 12.6012 13.5607 12.4727 13.4365L11.4502 12.4141C11.3224 12.2863 11.25 12.1124 11.25 11.9316C11.2501 11.751 11.3225 11.578 11.4502 11.4502C11.578 11.3225 11.751 11.25 11.9316 11.25ZM7.5 4.09082C8.40411 4.09082 9.2718 4.45051 9.91113 5.08984C10.5502 5.72911 10.9091 6.59608 10.9092 7.5C10.9092 8.40417 10.5504 9.2718 9.91113 9.91113C9.2718 10.5505 8.40411 10.9092 7.5 10.9092C6.59604 10.9092 5.72913 10.5502 5.08984 9.91113C4.45051 9.27179 4.09082 8.4042 4.09082 7.5C4.09085 6.59589 4.45054 5.72915 5.08984 5.08984C5.72916 4.45053 6.59588 4.09083 7.5 4.09082ZM1.36328 6.81836C1.54399 6.81836 1.71785 6.88987 1.8457 7.01758C1.97354 7.14541 2.04586 7.31922 2.0459 7.5C2.0459 7.68083 1.97357 7.85462 1.8457 7.98242C1.71784 8.11023 1.54405 8.18164 1.36328 8.18164H0.681641C0.500871 8.18159 0.327042 8.11026 0.199219 7.98242C0.0714428 7.85463 0 7.68076 0 7.5C3.67239e-05 7.31923 0.071399 7.14541 0.199219 7.01758C0.327042 6.88975 0.500871 6.81841 0.681641 6.81836H1.36328ZM14.3184 6.81836C14.4991 6.81839 14.6729 6.88976 14.8008 7.01758C14.9285 7.14541 15 7.31922 15 7.5C15 7.68079 14.9285 7.85463 14.8008 7.98242C14.6729 8.11028 14.4991 8.18161 14.3184 8.18164H13.6367C13.4559 8.18164 13.2822 8.11025 13.1543 7.98242C13.0264 7.85462 12.9551 7.68083 12.9551 7.5C12.9551 7.31922 13.0264 7.14541 13.1543 7.01758C13.2822 6.88984 13.456 6.81836 13.6367 6.81836H14.3184ZM12.9541 1.36426C13.1349 1.36426 13.3086 1.43567 13.4365 1.56348C13.5643 1.69134 13.6367 1.8651 13.6367 2.0459C13.6366 2.22652 13.5642 2.39959 13.4365 2.52734L12.4141 3.5498C12.3511 3.61493 12.2756 3.66739 12.1924 3.70312C12.1093 3.73877 12.0201 3.75796 11.9297 3.75879C11.8392 3.75957 11.7488 3.74229 11.665 3.70801C11.5812 3.67373 11.5054 3.62259 11.4414 3.55859C11.3774 3.49458 11.3263 3.41875 11.292 3.33496C11.2577 3.25117 11.2404 3.16085 11.2412 3.07031C11.2421 2.97996 11.2613 2.89065 11.2969 2.80762C11.3326 2.72443 11.3851 2.64883 11.4502 2.58594L12.4727 1.56348C12.6004 1.43578 12.7735 1.36437 12.9541 1.36426ZM2.0459 1.36426C2.22651 1.36436 2.39959 1.4358 2.52734 1.56348L3.5498 2.58594C3.67392 2.71445 3.74267 2.88678 3.74121 3.06543C3.73966 3.2442 3.6684 3.41558 3.54199 3.54199C3.41557 3.66841 3.2442 3.73966 3.06543 3.74121C2.88679 3.74267 2.71444 3.67393 2.58594 3.5498L1.56348 2.52734C1.4358 2.39959 1.36437 2.22651 1.36426 2.0459C1.36426 1.86511 1.43566 1.69133 1.56348 1.56348C1.69133 1.43566 1.8651 1.36426 2.0459 1.36426ZM7.5 0C7.6808 9.61281e-08 7.85463 0.0713968 7.98242 0.199219C8.11026 0.327042 8.18159 0.500879 8.18164 0.681641V1.36328C8.18164 1.54402 8.11017 1.71786 7.98242 1.8457C7.85462 1.97357 7.68083 2.0459 7.5 2.0459C7.31917 2.0459 7.14544 1.97357 7.01758 1.8457C6.88983 1.71785 6.81836 1.54403 6.81836 1.36328V0.681641C6.81841 0.500879 6.88976 0.327042 7.01758 0.199219C7.14543 0.071407 7.31922 0 7.5 0Z" fill="currentColor"/>
</svg>
